<?xml version="1.0" encoding="UTF-8"?>
<svg id="Layer_1" data-name="Layer 1" xmlns="http://www.w3.org/2000/svg" viewBox="0 0 791.64 491.47">
  <defs>
    <style>
      .cls-1 {
        fill: #000;
        stroke-width: 0px;
      }
    </style>
  </defs>
  <path class="cls-1" d="M368.73,123.73c-10-2.02-19.29-3.61-28.43-5.82-16.37-3.95-32.46-8.84-46.31-18.94-20.21-14.74-22.04-38.53-3.68-55.66,15.4-14.37,39.48-19.9,56.17,5.65,2.36,3.61,4.48,7.41,6.29,11.32,8.25,17.84,12,36.91,14.97,56.17.3,1.97.53,3.95.98,7.28Z"/>
  <path class="cls-1" d="M424.25,181.1c22.48,3.7,43.99,7.64,63.48,17.96,7.49,3.97,14.4,9.55,20.49,15.5,7.05,6.89,8.11,16.25,6.16,25.64-3.99,19.21-21.57,33.11-41.04,32.89-8.2-.09-14.96-3.6-20.21-9.44-4.18-4.65-8.05-9.84-10.93-15.38-10.82-20.81-14.7-43.55-17.95-67.18Z"/>
  <path class="cls-1" d="M397.17,112.37c-14.58-20.8-28.89-41.27-34.62-66.18-1.18-5.12-1.87-10.62-1.34-15.8,2.21-21.4,23.89-34.77,46.45-29.07,22.94,5.79,32.2,22.86,25.45,47.27-5.73,20.73-17.44,38.32-29.77,55.55-1.91,2.68-3.95,5.27-6.18,8.23Z"/>
  <path class="cls-1" d="M395.76,192.24c15.74,22.58,31.3,44.45,35.73,71.77,4.15,25.58-18.47,45.5-44.56,39.67-20.85-4.67-31.62-18.36-28.85-38.12,1.11-7.96,3.66-15.91,6.74-23.37,7.41-17.97,18.59-33.73,30.95-49.94Z"/>
  <path class="cls-1" d="M356.57,151.56c-20.94,14.71-41.45,28.97-66.36,34.68-5.11,1.17-10.63,1.85-15.8,1.3-20.3-2.17-33.43-21.9-29.54-43.67,3.89-21.78,18.35-32.63,40.21-29.78,4.89.64,9.75,2.09,14.42,3.74,21,7.38,38.86,20.14,57.07,33.73Z"/>
  <path class="cls-1" d="M367.75,179.74c-4.48,25.79-8.9,50.65-22.83,72.42-7.3,11.41-16.88,20.25-31.74,18.58-15.24-1.71-26.7-9.47-33.47-23.58-8.02-16.73-4.47-31.64,10.4-42.73,14.33-10.7,31.1-15.52,48.19-19.31,9.5-2.11,19.16-3.52,29.45-5.37Z"/>
  <path class="cls-1" d="M435.81,153.62c16.32-12.03,31.91-22.42,49.38-29.56,6.72-2.75,13.81-4.89,20.93-6.29,21.2-4.19,36.18,5.7,41.39,26.64,2.96,11.92.37,22.9-6.05,32.9-7.89,12.3-19.91,15.26-33.62,13.25-12.2-1.79-23.47-6.4-33.93-12.64-12.66-7.54-24.88-15.82-38.1-24.29Z"/>
  <path class="cls-1" d="M425.15,124.93c4.86-27.38,9.28-53.38,24.93-75.52,14.95-21.14,43.82-20.83,58.57.64,3.67,5.34,6.5,11.72,7.98,18.03,3.12,13.36-2.88,23.65-13.27,31.66-13.66,10.53-29.76,15.37-46.2,19.15-10.16,2.34-20.5,3.89-32,6.03Z"/>
  <path class="cls-1" d="M457.88,421.34c-8.59,2.24-13.82.13-17.19-7.89-3.13-7.43-7.93-14.15-12.41-21.92-3.84,6.61-7.44,12.78-11,18.96-1.57,2.72-2.79,5.71-4.71,8.15-1.2,1.53-3.37,3.1-5.18,3.2-8.52.5-8.5.31-10.92-8.32-5.41-19.31-10.86-38.6-16.28-57.9-.18-.63-.19-1.3-.38-2.6,3.76,0,7.41-.42,10.87.2,1.45.26,3.15,2.57,3.63,4.26,3.98,13.85,7.69,27.78,11.5,41.67.2.73.5,1.43,1.15,3.25,3.67-6.36,6.85-11.84,10.01-17.34.5-.86,1.09-1.7,1.41-2.63,1.98-5.8,6.06-7.25,11.89-6.75,3.34.28,5.04,1.5,6.51,4.23,3.94,7.28,8.1,14.45,12.73,22.67.88-2.78,1.5-4.57,2-6.39,3.68-13.13,7.42-26.23,10.92-39.41.79-2.96,2.07-4.11,5.12-3.84,2.93.26,5.9.06,9.41.06-6.49,23.25-12.83,45.95-19.09,68.34Z"/>
  <path class="cls-1" d="M329.62,421.71v-44.05c-.36-.12-.73-.23-1.09-.35-5.55,7.49-11.09,14.99-17.06,23.05-5.73-7.8-11.23-15.29-16.72-22.79-.38.09-.76.17-1.14.26v43.81h-12.57v-68.64c3.39,0,6.85-.21,10.25.12,1.19.12,2.51,1.38,3.32,2.46,5.57,7.45,11.02,14.99,16.83,22.94,4.43-5.98,9.4-11.4,12.84-17.66,4.17-7.59,9.96-9.23,17.98-7.33v68.17h-12.62Z"/>
  <path class="cls-1" d="M0,421.98v-68.47c9.89,0,19.9-.99,29.61.28,9.81,1.28,15.19,11.29,12.72,21.29-.65,2.65.02,3.81,1.81,5.35,8.63,7.4,11.15,16.62,7.48,26.76-3.21,8.89-12.08,14.73-22.64,14.79-9.47.05-18.95.01-28.99.01ZM12.98,409.17c5.18,0,9.81,0,14.44,0,.99,0,1.99,0,2.98-.08,5.39-.47,9.34-4.31,9.73-9.42.43-5.64-2.71-10.44-8.38-11.02-6.16-.63-12.43-.14-18.78-.14v20.66ZM12.91,375.23c4.36,0,8.4.47,12.25-.21,1.79-.32,4.53-2.95,4.43-4.37-.13-1.76-2.53-4.46-4.32-4.79-3.96-.73-8.14-.23-12.36-.23v9.59Z"/>
  <path class="cls-1" d="M269.92,387.26c-.35,20.12-16.63,36.05-36.52,35.71-19.68-.33-35.82-16.72-35.62-36.18.21-19.98,16.59-36.17,36.37-35.93,20.16.24,36.11,16.48,35.77,36.39ZM256.91,386.84c-.05-12.99-10.12-23.03-23.1-23.03-12.53,0-22.96,10.27-23.05,22.68-.09,12.99,10.47,23.74,23.22,23.64,12.82-.1,22.98-10.43,22.93-23.29Z"/>
  <path class="cls-1" d="M188.92,387.2c-.32,20.14-16.52,36.05-36.44,35.77-19.88-.27-35.96-16.77-35.69-36.64.26-19.56,16.76-35.68,36.31-35.47,20.16.21,36.14,16.41,35.82,36.33ZM175.91,387.03c.03-13.02-9.94-23.13-22.89-23.21-13.02-.09-23.32,10.32-23.24,23.48.07,12.31,10.7,22.85,23.02,22.84,12.84,0,23.08-10.24,23.11-23.1Z"/>
  <path class="cls-1" d="M578.92,421.55v-68.19h12.75v22.14h28.19v-22.17h12.68v68.36h-12.44v-32.92h-28.28v32.79h-12.89Z"/>
  <path class="cls-1" d="M790.85,361.77c-3.47,4.3-6.03,7.48-8.17,10.14-5.36-2.36-10.11-5.31-15.25-6.41-3.26-.69-7.62.58-10.57,2.42-3.91,2.44-3.3,7.18.96,9.16,3.86,1.8,8.19,2.6,12.29,3.89,3.78,1.2,7.8,1.98,11.25,3.81,7,3.71,10.9,9.68,10.2,17.88-.71,8.33-5.02,14.34-12.82,17.44-13.65,5.43-25.61,1.2-36.75-6.95-1.19-.87-2.27-1.9-3.73-3.14,2.72-3.21,5.35-6.31,7.17-8.46,7.01,2.83,13.35,5.78,19.98,7.87,2.42.76,5.91.22,8.12-1.08,2.25-1.33,4.82-4.31,4.85-6.59.02-2.11-2.73-5.28-4.99-6.18-5.67-2.25-11.79-3.33-17.64-5.16-8.4-2.63-13.73-9.15-14.07-16.8-.39-8.67,3.79-15.47,11.86-18.96,6.12-2.64,12.61-3.76,18.93-1.45,6.11,2.23,11.86,5.45,18.4,8.54Z"/>
  <path class="cls-1" d="M672.52,353.26h12.73c0,5.7,0,11.15,0,16.6,0,8.5-.19,17,.08,25.49.29,9.23,6.24,15.02,14.67,14.81,7.73-.19,13.18-6.28,13.26-15.15.11-11.99.03-23.99.03-35.99,0-1.8,0-3.61,0-5.72h12.57c.13.97.36,1.9.36,2.84.03,13.16.22,26.33-.03,39.48-.28,14.65-9.73,25.33-23.51,27.16-12.97,1.72-25.7-6.77-29.24-19.63-.61-2.21-.86-4.59-.87-6.89-.08-14.14-.04-28.29-.04-43.01Z"/>
  <path class="cls-1" d="M66.05,353.21h12.6v55.89h34.97v12.59h-47.56v-68.48Z"/>
  <path class="cls-1" d="M566.73,353.27v12.37h-16.72v56.05h-12.84v-55.79h-16.9v-12.63h46.46Z"/>
  <path class="cls-1" d="M396.45,133.82c10.33-.01,18.39,7.93,18.49,18.22.09,10.42-8.18,18.87-18.48,18.87-10.26,0-18.74-8.59-18.61-18.85.13-10.11,8.41-18.23,18.6-18.24Z"/>
  <path class="cls-1" d="M490.12,353.24h12.38v68.33h-12.38v-68.33Z"/>
  <path class="cls-1" d="M402.39,445.43c2.05,1.34,4.7,2.24,6.06,4.09,7.85,10.71,15.39,21.65,23.83,33.65v-36.11c.49-.39.99-.78,1.48-1.17,1.15,1,3.3,1.99,3.31,3.01.22,13.78.15,27.56.15,41.34l-1.29,1.23c-1.92-1.23-4.42-2.03-5.67-3.75-6.99-9.52-13.66-19.26-20.47-28.92-1.01-1.43-2.1-2.79-4.2-3.93,0,7.72,0,15.44,0,23.16,0,3.16.18,6.34-.1,9.48-.1,1.13-1.3,2.16-2,3.23-.84-1.1-2.4-2.18-2.42-3.29-.2-9.32-.11-18.65-.12-27.97,0-4.14,0-8.28,0-12.42.48-.55.96-1.09,1.44-1.64Z"/>
  <path class="cls-1" d="M337.14,459.85c-1.46-.63-3.47-.85-4.3-1.95-6.25-8.32-16.61-10.21-24.48-4.23-7.74,5.88-9.35,18.47-3.38,26.45,5.66,7.56,17.31,8.95,24.85,2.51,2.21-1.89,3.31-5.08,5.83-9.17-6.37,0-11.1.16-15.8-.1-1.38-.08-2.69-1.38-4.04-2.12,1.38-.69,2.74-1.92,4.15-1.99,5.15-.24,10.33.07,15.49-.15,3.78-.16,4,1.84,3.63,4.73-1.51,11.79-12.44,19.28-24.92,16.84-8.81-1.72-14.72-6.97-16.79-15.71-2.24-9.43-.22-17.9,7.65-24.24,7-5.64,15.12-6.52,22.94-2.89,4.16,1.94,7.2,6.3,10.74,9.57-.53.81-1.05,1.62-1.58,2.43Z"/>
  <path class="cls-1" d="M263.5,446c12.43-.19,22.15,9.32,22.31,21.83.17,13.18-9.19,22.98-22.11,23.15-12.63.17-22.11-9.36-22.29-22.38-.17-12.51,9.5-22.41,22.1-22.6ZM280.93,468.77c.22-10.46-7.26-18.52-17.27-18.6-9.79-.08-17.22,7.58-17.4,17.96-.18,10.42,7.38,18.57,17.3,18.65,9.69.07,17.16-7.66,17.37-18.01Z"/>
  <path class="cls-1" d="M346.89,490.06c3.86-8.96,7.72-17.92,11.58-26.88,2.1-4.87,4.03-9.82,6.34-14.58,1.7-3.52,5.54-3.61,7.1-.11,6.11,13.74,11.98,27.58,18.08,41.69-3.08,1.11-5.1.84-5.82-2.42-1.67-7.49-6.36-10.1-13.69-8.65-1.12.22-2.35.19-3.48,0-7.4-1.2-12.87.44-14.61,8.86-.29,1.38-2.71,2.31-4.14,3.45-.45-.46-.89-.91-1.34-1.37ZM368.25,451.04c-3.58,8.45-6.74,15.92-9.99,23.58h20.17c-3.39-7.84-6.56-15.2-10.18-23.58Z"/>
  <path class="cls-1" d="M520.11,470.14v16.03c6.41,0,12.66-.15,18.9.11,1.54.06,3.03,1.43,4.54,2.2-1.5.78-2.98,2.17-4.51,2.23-6.65.25-13.33.24-19.98-.02-1.28-.05-3.56-1.67-3.58-2.6-.23-13.78-.16-27.56-.16-41.89,8.85,0,17.14-.07,25.42.11.8.02,1.57,1.55,2.36,2.37-1.02.59-2.02,1.67-3.05,1.7-6.46.16-12.93.08-19.75.08v15.3h19.99c.77,4.16.77,4.3-2.26,4.35-5.79.1-11.59.03-17.91.03Z"/>
  <path class="cls-1" d="M164.08,477.47c1.41.98,3.24,1.68,4.16,3,3.66,5.27,8.59,7.43,14.06,5.58,3.4-1.15,5.81-3.39,5.84-7.2.03-3.94-1.98-6.63-5.87-7.64-3.21-.83-6.54-1.26-9.7-2.26-5.35-1.69-8.58-5.99-8.6-10.93-.03-5.01,3.56-9.5,8.97-11.24,8.84-2.85,16.09.6,19.57,9.52-1.15.45-2.3.91-3.41,1.34-3.93-6.62-8.51-8.96-14.98-6.75-3.53,1.2-5.41,3.78-5.36,7.56.05,3.85,2.54,5.51,5.91,6.32,3.23.78,6.52,1.36,9.66,2.39,5.38,1.77,8.57,5.97,8.7,10.93.14,5.28-2.92,9.67-8.26,11.85-8.45,3.45-20.59-1.29-20.71-12.47Z"/>
  <path class="cls-1" d="M571.41,464.16c5.16-6.24,9.91-12.1,14.85-17.8.47-.54,2.12-.07,4.24-.07-4.97,6.69-9.17,12.79-13.87,18.48-2.14,2.58-1.6,4.2.11,6.43,4.74,6.17,9.35,12.44,14.01,18.67-.34.5-.68,1-1.02,1.5-1.95-1.14-4.4-1.86-5.74-3.5-4.28-5.22-8.14-10.77-12.1-16.11-7.33,5.89-9.19,16.45-18.49,19.54-.41-.36-.82-.71-1.22-1.07,5.47-7.36,10.94-14.73,16.55-22.28-5.23-7.07-10.35-13.97-15.46-20.87.3-.47.61-.93.91-1.4,1.9,1.09,4.27,1.77,5.6,3.34,4.03,4.78,7.65,9.9,11.63,15.14Z"/>
  <path class="cls-1" d="M488.78,490.27c-3.92,1.29-4.91-.14-4.87-3.43.12-9.97.04-19.95.04-29.92,0-1.8,0-3.61,0-6.11-3.96,0-7.57.2-11.13-.11-1.2-.11-2.29-1.52-3.43-2.33,1.2-.73,2.38-2.07,3.59-2.09,8.97-.18,17.95-.18,26.93,0,1.22.02,2.42,1.36,3.63,2.09-1.29.82-2.52,2.2-3.88,2.34-3.42.34-6.9.11-10.88.11v39.46Z"/>
  <path class="cls-1" d="M616.92,450.81c0,11.27,0,21.87,0,32.47,0,1.33.29,2.75-.08,3.96-.39,1.27-1.41,2.35-2.16,3.51-.79-1.16-2.26-2.31-2.28-3.49-.19-9.97-.11-19.94-.11-29.91,0-1.96,0-3.93,0-6.48h-14.16c-.33-.56-.65-1.12-.98-1.68,1.16-1.01,2.31-2.87,3.5-2.89,10.11-.23,20.23-.13,30.31-.13,1.61,3.41.79,4.82-2.8,4.66-3.47-.15-6.95-.03-11.23-.03Z"/>
  <path class="cls-1" d="M211.59,486.12h20.44l1.16,1.25c-1.02,1.14-2.01,3.24-3.08,3.28-7.59.29-15.19.15-23.06.15v-44.16c3.45-1.18,4.61.01,4.58,3.4-.11,11.78-.04,23.56-.04,36.08Z"/>
</svg>